<svg width="96" height="96" viewBox="0 0 96 96" fill="none" xmlns="http://www.w3.org/2000/svg">
<circle cx="48" cy="48" r="48" fill="#A394FB" fill-opacity="0.28"/>
<path d="M72.9998 33.7333C70.7664 29.15 64.3331 25.4 56.8498 27.5833C53.2739 28.6162 50.154 30.8313 47.9998 33.8667C45.8456 30.8313 42.7257 28.6162 39.1498 27.5833C31.6498 25.4333 25.2331 29.15 22.9998 33.7333C19.8664 40.15 21.1664 47.3667 26.8664 55.1833C31.3331 61.3 37.7164 67.5 46.9831 74.7C47.276 74.9284 47.6367 75.0525 48.0081 75.0525C48.3795 75.0525 48.7403 74.9284 49.0331 74.7C58.2831 67.5167 64.6831 61.3667 69.1498 55.1833C74.8331 47.3667 76.1331 40.15 72.9998 33.7333V33.7333Z" fill="#72CCFF"/>
</svg>
