<svg width="175" height="175" viewBox="0 0 175 175" fill="none" xmlns="http://www.w3.org/2000/svg">
<rect width="175" height="175" fill="white"/>
<rect x="17.5" y="140" width="87.5" height="14" fill="black"/>
<path d="M25.11 55H19.53C19.074 55 18.738 54.904 18.522 54.712C18.33 54.496 18.234 54.16 18.234 53.704V30.376C18.234 29.92 18.33 29.596 18.522 29.404C18.738 29.188 19.074 29.08 19.53 29.08H30.546C33.81 29.08 36.042 29.728 37.242 31.024C38.442 32.32 39.042 34.012 39.042 36.1V40.708C39.042 42.796 38.442 44.488 37.242 45.784C36.042 47.08 33.81 47.728 30.546 47.728H26.406V53.704C26.406 54.16 26.298 54.496 26.082 54.712C25.89 54.904 25.566 55 25.11 55ZM26.334 35.812V41.248H29.574C30.27 41.248 30.726 41.068 30.942 40.708C31.158 40.348 31.266 39.94 31.266 39.484V37.576C31.266 37.12 31.158 36.712 30.942 36.352C30.726 35.992 30.27 35.812 29.574 35.812H26.334ZM62.5731 55H51.2331C48.2331 55 46.0011 54.4 44.5371 53.2C43.0971 52 42.3771 50.152 42.3771 47.656V36.424C42.3771 33.928 43.0971 32.08 44.5371 30.88C46.0011 29.68 48.2331 29.08 51.2331 29.08H60.2331C60.6891 29.08 61.0131 29.188 61.2051 29.404C61.4211 29.596 61.5291 29.92 61.5291 30.376V34.732C61.5291 35.188 61.4211 35.524 61.2051 35.74C61.0131 35.932 60.6891 36.028 60.2331 36.028H52.7451C52.0011 36.028 51.4491 36.184 51.0891 36.496C50.7291 36.784 50.5491 37.228 50.5491 37.828V46.432C50.5491 47.032 50.6811 47.476 50.9451 47.764C51.2331 48.052 51.6531 48.196 52.2051 48.196H55.6971V42.58C55.6971 42.124 55.7931 41.8 55.9851 41.608C56.2011 41.392 56.5371 41.284 56.9931 41.284H62.5731C63.0291 41.284 63.3531 41.392 63.5451 41.608C63.7611 41.8 63.8691 42.124 63.8691 42.58V53.704C63.8691 54.16 63.7611 54.496 63.5451 54.712C63.3531 54.904 63.0291 55 62.5731 55ZM74.9213 55H69.5573C69.1013 55 68.7653 54.904 68.5493 54.712C68.3573 54.496 68.2613 54.16 68.2613 53.704V30.376C68.2613 29.92 68.3573 29.596 68.5493 29.404C68.7653 29.188 69.1013 29.08 69.5573 29.08H75.3533C75.7373 29.08 76.0493 29.164 76.2893 29.332C76.5533 29.5 76.7933 29.776 77.0093 30.16L80.2493 36.028C80.3693 36.244 80.4653 36.4 80.5373 36.496C80.6333 36.592 80.7533 36.64 80.8973 36.64H81.2213C81.3653 36.64 81.4733 36.592 81.5453 36.496C81.6413 36.4 81.7493 36.244 81.8693 36.028L85.0733 30.16C85.2893 29.776 85.5173 29.5 85.7573 29.332C86.0213 29.164 86.3453 29.08 86.7293 29.08H92.5613C93.0173 29.08 93.3413 29.188 93.5333 29.404C93.7493 29.596 93.8573 29.92 93.8573 30.376V53.704C93.8573 54.16 93.7493 54.496 93.5333 54.712C93.3413 54.904 93.0173 55 92.5613 55H87.0173C86.5613 55 86.2253 54.904 86.0093 54.712C85.8173 54.496 85.7213 54.16 85.7213 53.704V41.032L83.5973 44.956C83.3813 45.364 83.1173 45.664 82.8053 45.856C82.5173 46.024 82.1453 46.108 81.6893 46.108H80.2493C79.7933 46.108 79.4093 46.024 79.0973 45.856C78.8093 45.664 78.5573 45.364 78.3413 44.956L76.2173 41.032V53.704C76.2173 54.16 76.1093 54.496 75.8933 54.712C75.7013 54.904 75.3773 55 74.9213 55ZM106.948 35.56V40.168H109.648C110.272 40.168 110.692 40.012 110.908 39.7C111.124 39.364 111.232 38.956 111.232 38.476V37.252C111.232 36.772 111.124 36.376 110.908 36.064C110.692 35.728 110.272 35.56 109.648 35.56H106.948ZM105.652 55H100.108C99.6521 55 99.3161 54.904 99.1001 54.712C98.9081 54.496 98.8121 54.16 98.8121 53.704V30.376C98.8121 29.92 98.9081 29.596 99.1001 29.404C99.3161 29.188 99.6521 29.08 100.108 29.08H112.096C114.784 29.08 116.632 29.644 117.64 30.772C118.672 31.876 119.188 33.316 119.188 35.092V36.748C119.188 37.756 119.032 38.62 118.72 39.34C118.432 40.036 117.916 40.54 117.172 40.852C118.468 40.996 119.512 41.524 120.304 42.436C121.12 43.348 121.528 44.56 121.528 46.072V53.704C121.528 54.16 121.42 54.496 121.204 54.712C121.012 54.904 120.688 55 120.232 55H114.652C114.196 55 113.86 54.904 113.644 54.712C113.452 54.496 113.356 54.16 113.356 53.704V48.196C113.356 47.668 113.248 47.284 113.032 47.044C112.84 46.78 112.492 46.648 111.988 46.648H106.948V53.704C106.948 54.16 106.84 54.496 106.624 54.712C106.432 54.904 106.108 55 105.652 55Z" fill="black"/>
</svg>
